# File created by Blade
# Date/Time:  Fri Jan 16 14:33:41 2015
# Frame Rate: 120.000 fps
#------------------------------------------------------
:FULLY-SPECIFIED
:DEGREES
1128
root 19.109974 35.760603 -24.001668 -171.220817 -9.854844 -179.493271
Spine -11.592847 -16.490304 -2.636185
Head 6.376263 -6.312985 9.451311
LeftShoulder -12.924447 -14.621280 -2.287948
LeftArm -17.157110 6.654240 -72.153825
LeftForeArm 2.919713 0.000000 9.294070
LeftHand -1.588701 0.000000 1.281256
LeftHandThumb1 -26.253704 0.000000 33.147579
RightShoulder -19.364070 -21.235005 5.159210
RightArm 1.712326 -26.912294 69.090307
RightForeArm -62.893500 -0.000000 39.335250
RightHand 10.678240 -0.000000 3.096746
RightHandThumb1 -24.326973 -0.000000 -32.862282
LeftUpLeg -1.967510 5.459170 0.713009
LeftLeg -5.782516 -0.000000 0.000000
LeftFoot -17.804042 22.728089 -14.409064
LeftToeBase 25.337632 -0.000000 -0.000000
RightUpLeg -1.295129 -16.417301 3.760527
RightLeg -3.831141 -0.000000 0.000000
RightFoot -21.406191 -26.702018 17.876973
RightToeBase 21.791519 -0.000000 -0.000000
1129
root 19.107632 35.758875 -24.003062 -171.232216 -9.851489 -179.493627
Spine -11.678183 -16.371396 -2.600005
Head 6.480621 -6.419784 9.272509
LeftShoulder -12.833756 -14.565560 -2.342343
LeftArm -17.061598 6.803529 -72.181020
LeftForeArm 2.876990 -0.000000 9.204147
LeftHand -1.684219 -0.000000 1.465248
LeftHandThumb1 -26.253704 0.000000 33.147579
RightShoulder -19.070271 -20.885720 5.577297
RightArm 1.914450 -26.013988 69.183975
RightForeArm -62.088409 -0.000000 37.736328
RightHand 10.523290 -0.000000 2.861881
RightHandThumb1 -24.326973 -0.000000 -32.862282
LeftUpLeg -1.958334 5.453201 0.711585
LeftLeg -5.767998 -0.000000 0.000000
LeftFoot -17.828608 22.733048 -14.383124
LeftToeBase 25.342133 -0.000000 -0.000000
RightUpLeg -1.281885 -16.461265 3.756931
RightLeg -3.832628 -0.000000 0.000000
RightFoot -21.404532 -26.673579 17.837758
RightToeBase 21.844982 -0.000000 -0.000000
1130
root 19.099520 35.757058 -24.001963 -171.259004 -9.748284 -179.476340
Spine -11.744125 -16.134359 -2.539831
Head 6.557857 -6.509112 9.068510
LeftShoulder -12.728002 -14.598311 -2.425049
LeftArm -17.038923 6.952414 -72.194003
LeftForeArm 2.791527 0.000000 9.134999
LeftHand -1.657521 -0.000000 1.463575
LeftHandThumb1 -26.253704 0.000000 33.147579
RightShoulder -18.795717 -20.636330 6.039611
RightArm 2.304251 -25.205157 69.137631
RightForeArm -61.211521 0.000000 36.136009
RightHand 10.169050 0.000000 2.453064
RightHandThumb1 -24.326973 -0.000000 -32.862282
LeftUpLeg -1.909585 5.544815 0.702271
LeftLeg -5.790835 -0.000000 0.000000
LeftFoot -17.848298 22.761298 -14.346594
LeftToeBase 25.395014 -0.000000 -0.000000
RightUpLeg -1.283399 -16.340872 3.740820
RightLeg -3.791270 -0.000000 0.000000
RightFoot -21.412145 -26.687486 17.840714
RightToeBase 21.749292 -0.000000 -0.000000
1131
root 19.093796 35.755237 -24.004756 -171.268110 -9.702114 -179.478030
Spine -11.851201 -15.964941 -2.490637
Head 6.662743 -6.567433 8.865897
LeftShoulder -12.609796 -14.590150 -2.502056
LeftArm -17.023910 7.051702 -72.193197
LeftForeArm 2.708113 -0.000000 9.071755
LeftHand -1.640739 -0.000000 1.443261
LeftHandThumb1 -26.253704 0.000000 33.147579
RightShoulder -18.529751 -20.356135 6.472087
RightArm 2.702873 -24.538394 69.076658
RightForeArm -60.341985 -0.000000 34.431299
RightHand 9.930556 -0.000000 2.062170
RightHandThumb1 -24.326973 -0.000000 -32.862282
LeftUpLeg -1.882786 5.592016 0.688565
LeftLeg -5.800397 -0.000000 0.000000
LeftFoot -17.857043 22.748272 -14.326098
LeftToeBase 25.395631 -0.000000 -0.000000
RightUpLeg -1.274903 -16.338045 3.723619
RightLeg -3.789004 -0.000000 0.000000
RightFoot -21.418959 -26.679469 17.795634
RightToeBase 21.894763 -0.000000 -0.000000
1132
root 19.088942 35.753312 -24.007722 -171.273469 -9.674522 -179.483417
Spine -11.955370 -15.807642 -2.455834
Head 6.764682 -6.648596 8.699799
LeftShoulder -12.489601 -14.596911 -2.575622
LeftArm -17.026195 7.096830 -72.165952
LeftForeArm 2.590072 -0.000000 9.031945
LeftHand -1.436142 -0.000000 0.928083
LeftHandThumb1 -26.253704 0.000000 33.147579
RightShoulder -18.257890 -20.127238 6.941319
RightArm 3.186149 -23.877202 68.963098
RightForeArm -59.612850 -0.000000 32.609899
RightHand 9.785324 -0.000000 1.579533
RightHandThumb1 -24.326973 -0.000000 -32.862282
LeftUpLeg -1.866419 5.612472 0.675759
LeftLeg -5.799312 -0.000000 0.000000
LeftFoot -17.879282 22.751559 -14.311791
LeftToeBase 25.403123 -0.000000 -0.000000
RightUpLeg -1.257201 -16.359747 3.708529
RightLeg -3.807199 -0.000000 0.000000
RightFoot -21.396681 -26.672687 17.735602
RightToeBase 21.828503 -0.000000 -0.000000
1133
root 19.083703 35.752067 -24.005373 -171.275427 -9.631071 -179.487599
Spine -12.046933 -15.652037 -2.413244
Head 6.846746 -6.744597 8.515248
LeftShoulder -12.372593 -14.599682 -2.653005
LeftArm -17.009970 7.166171 -72.155054
LeftForeArm 2.451671 -0.000000 8.983178
LeftHand -1.481194 -0.000000 0.957514
LeftHandThumb1 -26.253704 0.000000 33.147579
RightShoulder -17.895750 -19.783896 7.373027
RightArm 3.587989 -23.301033 68.835951
RightForeArm -58.637210 -0.000000 30.723021
RightHand 9.794054 -0.000000 1.079200
RightHandThumb1 -24.326973 -0.000000 -32.862282
LeftUpLeg -1.861054 5.613633 0.661900
LeftLeg -5.796502 -0.000000 0.000000
LeftFoot -17.892806 22.786716 -14.286825
LeftToeBase 25.401345 -0.000000 -0.000000
RightUpLeg -1.262954 -16.335050 3.694771
RightLeg -3.804755 -0.000000 0.000000
RightFoot -21.389969 -26.690696 17.680723
RightToeBase 21.868628 -0.000000 -0.000000
1134
root 19.078223 35.750662 -24.004350 -171.291796 -9.594634 -179.487652
Spine -12.133243 -15.477818 -2.375199
Head 6.943345 -6.851660 8.332576
LeftShoulder -12.208635 -14.580787 -2.755022
LeftArm -16.985856 7.252626 -72.142207
LeftForeArm 2.283494 -0.000000 8.932167
LeftHand -1.538388 -0.000000 1.212756
LeftHandThumb1 -26.253704 0.000000 33.147579
RightShoulder -17.477764 -19.407861 7.794142
RightArm 3.887100 -22.635993 68.743797
RightForeArm -57.523036 0.000000 29.020456
RightHand 9.424145 -0.000000 1.134879
RightHandThumb1 -24.326973 -0.000000 -32.862282
LeftUpLeg -1.848197 5.628573 0.651396
LeftLeg -5.776535 -0.000000 0.000000
LeftFoot -17.913083 22.804341 -14.262627
LeftToeBase 25.414524 -0.000000 -0.000000
RightUpLeg -1.257639 -16.319148 3.678421
RightLeg -3.784455 -0.000000 0.000000
RightFoot -21.392870 -26.685388 17.726495
RightToeBase 21.750073 -0.000000 -0.000000
1135
root 19.073191 35.748337 -24.006006 -171.325011 -9.557035 -179.485178
Spine -12.214450 -15.289449 -2.346377
Head 7.058043 -6.973493 8.158312
LeftShoulder -12.014066 -14.554931 -2.851877
LeftArm -16.972843 7.287459 -72.124188
LeftForeArm 2.078028 -0.000000 8.865587
LeftHand -1.602702 -0.000000 1.375813
LeftHandThumb1 -26.253704 0.000000 33.147579
RightShoulder -16.982977 -19.015605 8.181059
RightArm 4.089231 -21.955026 68.678361
RightForeArm -56.451258 -0.000000 27.373593
RightHand 9.045657 0.000000 1.433538
RightHandThumb1 -24.326973 -0.000000 -32.862282
LeftUpLeg -1.806021 5.642183 0.648452
LeftLeg -5.772810 -0.000000 0.000000
LeftFoot -17.932681 22.815694 -14.224686
LeftToeBase 25.395256 -0.000000 -0.000000
RightUpLeg -1.222258 -16.313899 3.660663
RightLeg -3.789655 -0.000000 0.000000
RightFoot -21.389101 -26.677118 17.615556
RightToeBase 21.929641 -0.000000 -0.000000
1136
root 19.066534 35.746286 -24.005131 -171.332375 -9.509431 -179.491198
Spine -12.310158 -15.099930 -2.313855
Head 7.131983 -7.075169 7.986485
LeftShoulder -11.859776 -14.537858 -2.950557
LeftArm -16.932681 7.381457 -72.110345
LeftForeArm 1.999521 -0.000000 8.791627
LeftHand -1.512820 -0.000000 1.196658
LeftHandThumb1 -26.253704 0.000000 33.147579
RightShoulder -16.399234 -18.545494 8.535257
RightArm 4.166105 -21.267664 68.622488
RightForeArm -54.827042 -0.000000 25.689180
RightHand 8.501921 -0.000000 0.324822
RightHandThumb1 -24.326973 -0.000000 -32.862282
LeftUpLeg -1.790699 5.655971 0.629651
LeftLeg -5.771097 -0.000000 0.000000
LeftFoot -17.958563 22.846927 -14.205572
LeftToeBase 25.399429 -0.000000 -0.000000
RightUpLeg -1.218055 -16.292172 3.637469
RightLeg -3.788158 -0.000000 0.000000
RightFoot -21.394675 -26.672840 17.585523
RightToeBase 21.892921 -0.000000 -0.000000
1137
root 19.060366 35.744406 -24.004817 -171.344643 -9.448473 -179.492610
Spine -12.408386 -14.889445 -2.265552
Head 7.220031 -7.208397 7.759886
LeftShoulder -11.727127 -14.530831 -3.056755
LeftArm -16.865587 7.567774 -72.106861
LeftForeArm 1.831911 0.000000 8.681464
LeftHand -1.516073 0.000000 1.199207
LeftHandThumb1 -26.253704 0.000000 33.147579
RightShoulder -15.889236 -18.144673 8.880049
RightArm 4.360013 -20.517746 68.542314
RightForeArm -53.883288 -0.000000 24.041382
RightHand 8.369657 0.000000 0.952865
RightHandThumb1 -24.326973 -0.000000 -32.862282
LeftUpLeg -1.772871 5.689379 0.613859
LeftLeg -5.761916 -0.000000 0.000000
LeftFoot -17.994580 22.867805 -14.185496
LeftToeBase 25.462023 -0.000000 -0.000000
RightUpLeg -1.216196 -16.257212 3.615746
RightLeg -3.773222 -0.000000 0.000000
RightFoot -21.396682 -26.675770 17.518273
RightToeBase 22.001067 -0.000000 -0.000000
1138
root 19.054531 35.742355 -24.005269 -171.353049 -9.389397 -179.482733
Spine -12.527241 -14.669820 -2.199178
Head 7.325653 -7.337589 7.522128
LeftShoulder -11.619992 -14.519785 -3.157540
LeftArm -16.763557 7.769940 -72.107397
LeftForeArm 1.723233 -0.000000 8.538029
LeftHand -1.523657 -0.000000 1.101698
LeftHandThumb1 -26.253704 0.000000 33.147579
RightShoulder -15.437854 -17.828175 9.251160
RightArm 4.744350 -19.908483 68.356303
RightForeArm -52.740364 -0.000000 22.292913
RightHand 8.575283 -0.000000 2.255170
RightHandThumb1 -24.326973 -0.000000 -32.862282
LeftUpLeg -1.756705 5.715095 0.611245
LeftLeg -5.757962 -0.000000 0.000000
LeftFoot -18.018820 22.905218 -14.144182
LeftToeBase 25.450143 -0.000000 -0.000000
RightUpLeg -1.211074 -16.223343 3.607163
RightLeg -3.771999 -0.000000 0.000000
RightFoot -21.380038 -26.674067 17.470953
RightToeBase 22.017825 -0.000000 -0.000000
1139
root 19.046946 35.739402 -24.002945 -171.340776 -9.321834 -179.484479
Spine -12.645380 -14.412289 -2.145811
Head 7.366464 -7.444560 7.293677
LeftShoulder -11.506501 -14.510235 -3.254958
LeftArm -16.638863 8.032587 -72.130957
LeftForeArm 1.535071 -0.000000 8.385361
LeftHand -1.484423 0.000000 1.029238
LeftHandThumb1 -26.253704 0.000000 33.147579
RightShoulder -15.026131 -17.552683 9.626270
RightArm 5.164603 -19.278238 68.138140
RightForeArm -51.298719 -0.000000 20.622988
RightHand 8.621718 0.000000 2.882042
RightHandThumb1 -24.326973 -0.000000 -32.862282
LeftUpLeg -1.758346 5.759176 0.587276
LeftLeg -5.762587 -0.000000 0.000000
LeftFoot -18.046947 22.935976 -14.103974
LeftToeBase 25.473927 -0.000000 -0.000000
RightUpLeg -1.231470 -16.174758 3.590307
RightLeg -3.768641 -0.000000 0.000000
RightFoot -21.375253 -26.685941 17.403349
RightToeBase 22.044603 -0.000000 -0.000000
1140
root 19.038804 35.737124 -24.003121 -171.335250 -9.251759 -179.493457
Spine -12.766867 -14.139635 -2.111786
Head 7.445025 -7.583846 7.073950
LeftShoulder -11.372909 -14.511194 -3.343194
LeftArm -16.551745 8.266170 -72.163933
LeftForeArm 1.416189 -0.000000 8.254374
LeftHand -1.406399 -0.000000 0.856483
LeftHandThumb1 -26.253704 0.000000 33.147579
RightShoulder -14.689095 -17.265543 10.001412
RightArm 5.610938 -18.908558 67.873241
RightForeArm -49.859638 0.000000 19.016681
RightHand 8.276431 -0.000000 3.117960
RightHandThumb1 -24.326973 -0.000000 -32.862282
LeftUpLeg -1.752682 5.773746 0.559558
LeftLeg -5.755528 -0.000000 0.000000
LeftFoot -18.075924 22.983332 -14.087960
LeftToeBase 25.480411 -0.000000 -0.000000
RightUpLeg -1.234971 -16.137348 3.562089
RightLeg -3.778061 -0.000000 0.000000
RightFoot -21.363423 -26.666931 17.351277
RightToeBase 22.058692 -0.000000 -0.000000
